<?xml version="1.0" encoding="iso-8859-1"?>
<!-- Generator: Adobe Illustrator 19.1.0, SVG Export Plug-In . SVG Version: 6.00 Build 0)  -->
<svg version="1.1" id="Capa_1" xmlns="http://www.w3.org/2000/svg" xmlns:xlink="http://www.w3.org/1999/xlink" x="0px" y="0px"
	 viewBox="0 0 469.964 469.964" style="enable-background:new 0 0 469.964 469.964;" xml:space="preserve">
<g>
	<path style="fill:#FFB033;" d="M171.617,324.208c-2.675-8.977-4.135-18.726-4.135-28.971c0-46.262,29.649-82.5,67.5-82.5
		s67.5,36.238,67.5,82.5c0,10.013-1.414,19.83-4.143,29c39.884-10.756,76.216-31.527,105.89-60.614l25.12-165.363l-50.833,68.173
		c-1.376,1.845-3.522,2.956-5.823,3.014c-2.29,0.062-4.5-0.943-5.968-2.716l-62.988-76.11l-62.985,76.11
		c-1.425,1.722-3.543,2.718-5.778,2.718s-4.354-0.997-5.778-2.718l-62.982-76.109l-62.979,76.109
		c-1.467,1.773-3.667,2.777-5.968,2.716c-2.3-0.058-4.447-1.169-5.823-3.015l-50.827-68.17l25.119,165.357
		C95.393,292.691,131.724,313.451,171.617,324.208z M372.509,212.64c4.135,0,7.5,3.365,7.5,7.5s-3.365,7.5-7.5,7.5
		s-7.5-3.365-7.5-7.5S368.373,212.64,372.509,212.64z M127.455,233.64c4.135,0,7.5,3.365,7.5,7.5s-3.365,7.5-7.5,7.5
		s-7.5-3.365-7.5-7.5S123.32,233.64,127.455,233.64z M97.455,212.64c4.135,0,7.5,3.365,7.5,7.5s-3.365,7.5-7.5,7.5
		s-7.5-3.365-7.5-7.5S93.32,212.64,97.455,212.64z"/>
	<path style="fill:#FFD085;" d="M448.392,272.521c-4.25-4.25-9.9-6.591-15.91-6.591s-11.66,2.34-15.909,6.59
		c-35.384,35.384-79.936,59.474-128.839,69.665c-2.801,0.583-5.693-0.479-7.451-2.739c-1.757-2.26-2.075-5.324-0.817-7.896
		c5.245-10.732,8.017-23.289,8.017-36.312c0-37.851-23.061-67.5-52.5-67.5s-52.5,29.649-52.5,67.5
		c0,13.351,2.879,25.672,7.886,36.041c0.042,0.079,0.079,0.16,0.118,0.24c9.208,18.891,25.521,31.219,44.496,31.219
		c9.981,0,19.624-3.465,27.884-10.019c3.245-2.576,7.962-2.032,10.537,1.213c2.575,3.245,2.032,7.962-1.213,10.537
		c-10.94,8.681-23.806,13.269-37.208,13.269c-23.753,0-44.271-14.275-56.264-36.338c-47.538-10.599-90.807-34.36-125.326-68.879
		c-4.25-4.25-9.9-6.591-15.91-6.591s-11.66,2.34-15.909,6.59c-8.773,8.773-8.773,23.047,0,31.82
		c57.003,57.004,132.794,88.398,213.41,88.398s156.406-31.394,213.41-88.398C457.164,295.567,457.164,281.293,448.392,272.521z
		 M234.982,347.738c-21.028,0-37.5-23.061-37.5-52.5s16.472-52.5,37.5-52.5s37.5,23.061,37.5,52.5S256.01,347.738,234.982,347.738z"
		/>
	<path style="fill:#081C1F;" d="M458.999,261.915c-7.083-7.084-16.5-10.985-26.517-10.985c-3.934,0-7.776,0.602-11.42,1.762
		l27.623-181.838c0.517-3.402-1.348-6.72-4.524-8.047c-3.175-1.325-6.846-0.322-8.904,2.437l-63.061,84.571l-62.681-75.739
		c-1.425-1.722-3.543-2.718-5.778-2.718s-4.353,0.997-5.778,2.718l-62.985,76.11l-62.982-76.11
		c-1.425-1.722-3.543-2.718-5.778-2.718s-4.354,0.997-5.778,2.719l-62.672,75.738l-63.055-84.57
		c-2.057-2.759-5.727-3.765-8.904-2.437c-3.175,1.327-5.041,4.644-4.524,8.047l27.623,181.838c-3.644-1.16-7.486-1.762-11.42-1.762
		c-10.017,0-19.434,3.901-26.516,10.984c-14.621,14.621-14.621,38.411,0,53.032c59.836,59.837,139.394,92.792,224.016,92.792
		s164.18-32.954,224.016-92.792C473.619,300.325,473.619,276.535,458.999,261.915z M234.982,392.738
		c-80.616,0-156.406-31.394-213.41-88.398c-8.772-8.772-8.772-23.047,0-31.82c4.249-4.25,9.899-6.59,15.909-6.59
		s11.66,2.34,15.909,6.59c34.519,34.519,77.789,58.281,125.327,68.879c11.993,22.063,32.511,36.338,56.264,36.338
		c13.401,0,26.268-4.588,37.208-13.269c3.245-2.574,3.788-7.292,1.213-10.537c-2.575-3.246-7.292-3.789-10.537-1.213
		c-8.261,6.554-17.903,10.019-27.884,10.019c-18.975,0-35.288-12.328-44.496-31.219c-0.039-0.08-0.076-0.161-0.118-0.24
		c-5.006-10.369-7.886-22.69-7.886-36.041c0-37.851,23.061-67.5,52.5-67.5s52.5,29.649,52.5,67.5c0,13.023-2.772,25.58-8.017,36.312
		c-1.257,2.573-0.94,5.636,0.817,7.896c1.758,2.26,4.65,3.321,7.451,2.739c48.903-10.191,93.455-34.281,128.838-69.665
		c4.25-4.25,9.9-6.591,15.91-6.591s11.66,2.34,15.91,6.591c8.772,8.772,8.772,23.047,0,31.819
		C391.388,361.344,315.598,392.738,234.982,392.738z M91.442,166.433c1.375,1.845,3.522,2.957,5.823,3.015
		c2.301,0.061,4.501-0.943,5.968-2.716l62.979-76.109l62.982,76.109c1.425,1.722,3.543,2.718,5.778,2.718s4.353-0.997,5.778-2.718
		l62.985-76.11l62.988,76.11c1.467,1.773,3.678,2.778,5.968,2.716c2.3-0.058,4.447-1.169,5.823-3.014l50.833-68.173l-25.12,165.363
		c-29.674,29.087-66.006,49.858-105.89,60.614c2.729-9.17,4.143-18.986,4.143-29c0-46.262-29.649-82.5-67.5-82.5
		s-67.5,36.238-67.5,82.5c0,10.245,1.46,19.994,4.135,28.971c-39.892-10.758-76.224-31.517-105.882-60.589L40.616,98.263
		L91.442,166.433z"/>
	<path style="fill:#081C1F;" d="M97.455,227.64c4.135,0,7.5-3.365,7.5-7.5s-3.365-7.5-7.5-7.5s-7.5,3.365-7.5,7.5
		S93.32,227.64,97.455,227.64z"/>
	<path style="fill:#081C1F;" d="M127.455,248.64c4.135,0,7.5-3.365,7.5-7.5s-3.365-7.5-7.5-7.5s-7.5,3.365-7.5,7.5
		S123.32,248.64,127.455,248.64z"/>
	<path style="fill:#081C1F;" d="M372.509,227.64c4.135,0,7.5-3.365,7.5-7.5s-3.365-7.5-7.5-7.5s-7.5,3.365-7.5,7.5
		S368.373,227.64,372.509,227.64z"/>
	<path style="fill:#FF3B33;" d="M234.982,257.738c-12.196,0-22.5,17.173-22.5,37.5s10.304,37.5,22.5,37.5s22.5-17.173,22.5-37.5
		S247.178,257.738,234.982,257.738z"/>
	<path style="fill:#081C1F;" d="M234.982,242.738c-21.028,0-37.5,23.061-37.5,52.5s16.472,52.5,37.5,52.5s37.5-23.061,37.5-52.5
		S256.01,242.738,234.982,242.738z M257.482,295.238c0,20.327-10.304,37.5-22.5,37.5s-22.5-17.173-22.5-37.5s10.304-37.5,22.5-37.5
		S257.482,274.911,257.482,295.238z"/>
</g>
<g>
</g>
<g>
</g>
<g>
</g>
<g>
</g>
<g>
</g>
<g>
</g>
<g>
</g>
<g>
</g>
<g>
</g>
<g>
</g>
<g>
</g>
<g>
</g>
<g>
</g>
<g>
</g>
<g>
</g>
</svg>
